<svg xmlns="http://www.w3.org/2000/svg" xmlns:xlink="http://www.w3.org/1999/xlink" width="205" zoomAndPan="magnify" viewBox="0 0 153.75 30.000001" height="40" preserveAspectRatio="xMidYMid meet" version="1.0"><defs><g/><clipPath id="a496203d7f"><path d="M 113.488281 1.140625 L 146.875 1.140625 L 146.875 27.996094 L 113.488281 27.996094 Z M 113.488281 1.140625 " clip-rule="nonzero"/></clipPath></defs><g clip-path="url(#a496203d7f)"><path fill="#bfa886" d="M 146.632812 21.074219 C 146.511719 20.359375 146.042969 19.753906 145.40625 19.496094 C 145.300781 19.453125 145.191406 19.421875 145.078125 19.398438 C 145.511719 18.65625 145.71875 17.785156 145.640625 17 C 145.515625 15.722656 144.746094 14.824219 143.679688 14.707031 C 143.621094 14.699219 143.558594 14.695312 143.496094 14.695312 C 143.753906 13.941406 143.949219 13.179688 144.082031 12.410156 C 144.566406 9.550781 144.089844 6.933594 142.738281 5.046875 C 142.074219 4.128906 141.152344 3.433594 140.074219 3.03125 C 138.933594 1.777344 137.335938 1.140625 135.683594 1.285156 C 135.4375 1.304688 135.1875 1.34375 134.945312 1.398438 C 133.648438 1.699219 131.769531 2.648438 130.203125 5.457031 C 129.632812 6.542969 129.15625 7.679688 128.785156 8.828125 C 128.5 8.085938 128.160156 7.316406 127.773438 6.539062 C 126.746094 4.511719 125.429688 3.066406 123.867188 2.242188 C 122.957031 1.753906 121.910156 1.542969 120.847656 1.632812 C 119.605469 1.742188 118.457031 2.261719 117.617188 3.097656 C 117.335938 3.378906 117.074219 3.691406 116.84375 4.027344 C 116.53125 4.199219 116.238281 4.402344 115.972656 4.625 C 114.863281 5.570312 114.144531 6.894531 113.828125 8.554688 C 113.496094 10.320312 113.707031 11.992188 113.945312 13.085938 C 114.671875 16.410156 116.566406 19.578125 119.425781 22.246094 C 119.90625 22.699219 120.414062 23.152344 120.863281 23.523438 C 122.847656 25.183594 125.082031 26.640625 127.585938 27.414062 C 128.371094 27.65625 129.128906 27.871094 129.941406 27.65625 C 130.785156 27.429688 131.605469 27.117188 132.390625 26.742188 C 133.046875 26.429688 133.699219 26.0625 134.351562 25.644531 C 134.789062 25.835938 135.210938 25.921875 135.515625 25.96875 C 135.910156 26.03125 136.296875 26.144531 136.664062 26.304688 C 137.035156 26.46875 137.378906 26.679688 137.6875 26.929688 C 137.996094 27.175781 138.480469 27.527344 139.109375 27.71875 C 139.539062 27.847656 140.003906 27.882812 140.457031 27.820312 C 141.066406 27.738281 141.636719 27.480469 142.0625 27.09375 C 142.699219 26.515625 143.023438 25.675781 142.957031 24.832031 C 143.191406 24.902344 143.4375 24.941406 143.679688 24.933594 C 143.761719 24.933594 143.84375 24.925781 143.925781 24.917969 C 144.496094 24.839844 145.027344 24.535156 145.511719 24.011719 C 145.871094 23.621094 146.160156 23.179688 146.375 22.699219 C 146.632812 22.113281 146.71875 21.582031 146.632812 21.074219 Z M 141.636719 5.902344 C 141.878906 6.238281 142.085938 6.617188 142.25 7.023438 C 143.476562 10.089844 142.566406 13.332031 141.855469 15.09375 C 141.796875 14.722656 141.683594 14.382812 141.507812 14.085938 C 141.78125 13.121094 141.96875 12.148438 142.070312 11.175781 C 142.273438 9.21875 142.128906 7.445312 141.636719 5.902344 Z M 130.828125 7.367188 C 131.691406 5.390625 132.796875 3.992188 134.113281 3.214844 C 134.671875 2.882812 135.269531 2.6875 135.894531 2.632812 C 136.101562 2.617188 136.308594 2.613281 136.515625 2.628906 C 136.71875 2.640625 136.921875 2.667969 137.121094 2.710938 C 136.394531 2.808594 135.699219 3.03125 135.050781 3.378906 C 133.453125 4.207031 132.042969 5.628906 130.863281 7.613281 C 130.6875 7.902344 130.519531 8.191406 130.359375 8.484375 C 130.503906 8.113281 130.660156 7.742188 130.828125 7.367188 Z M 120.933594 3.011719 C 121.738281 2.941406 122.527344 3.101562 123.210938 3.476562 C 124.566406 4.183594 125.742188 5.523438 126.710938 7.460938 C 127.035156 8.097656 127.324219 8.734375 127.582031 9.363281 C 127.214844 8.742188 126.804688 8.117188 126.339844 7.472656 C 124.929688 5.484375 123.234375 4.136719 121.429688 3.574219 C 120.882812 3.398438 120.304688 3.308594 119.714844 3.304688 C 120.097656 3.148438 120.507812 3.046875 120.933594 3.011719 Z M 119.375 20.695312 C 116.894531 18.230469 115.289062 15.347656 114.734375 12.359375 C 114.332031 10.023438 114.660156 7.882812 115.65625 6.339844 C 115.722656 6.238281 115.792969 6.132812 115.871094 6.03125 C 115.464844 7.285156 115.292969 8.761719 115.375 10.328125 C 115.578125 13.609375 116.855469 16.945312 119.074219 19.980469 C 119.527344 20.582031 119.953125 21.125 120.375 21.632812 C 120.042969 21.335938 119.710938 21.019531 119.375 20.695312 Z M 133.058594 24.617188 C 132.097656 25.351562 131.101562 25.941406 130.085938 26.324219 C 129.523438 26.535156 129.039062 26.566406 128.457031 26.390625 C 128.203125 26.316406 127.949219 26.222656 127.703125 26.125 C 127.105469 25.894531 126.53125 25.605469 125.984375 25.277344 C 124.320312 24.273438 122.902344 22.90625 121.632812 21.460938 C 121.042969 20.785156 120.480469 20.082031 119.9375 19.363281 C 117.550781 16.074219 116.363281 12.355469 116.601562 8.894531 C 116.707031 7.601562 117.070312 5.785156 118.191406 4.449219 C 118.488281 4.359375 118.789062 4.296875 119.085938 4.261719 C 119.125 4.257812 119.164062 4.253906 119.207031 4.25 C 120.253906 4.160156 122.957031 4.351562 125.488281 8.054688 C 126.582031 9.621094 127.414062 11.191406 127.964844 12.722656 C 127.972656 12.785156 127.996094 12.84375 128.023438 12.898438 C 128.148438 13.257812 128.257812 13.609375 128.347656 13.945312 C 128.417969 14.222656 128.683594 14.40625 128.972656 14.382812 C 129.011719 14.378906 129.050781 14.371094 129.089844 14.359375 C 129.316406 14.292969 129.480469 14.101562 129.507812 13.875 C 130.035156 11.75 131.066406 9.558594 132.578125 7.367188 C 133.980469 5.394531 135.789062 4.179688 137.535156 4.027344 C 137.773438 4.007812 138.015625 4.003906 138.253906 4.023438 C 138.703125 4.054688 139.140625 4.148438 139.542969 4.296875 C 140.105469 5.007812 140.546875 5.925781 140.816406 6.941406 C 141.339844 8.890625 141.304688 11.070312 140.738281 13.292969 C 140.339844 13.050781 139.863281 12.957031 139.363281 13.023438 C 138.789062 13.101562 138.3125 13.371094 138.011719 13.582031 C 137.390625 14.015625 136.878906 14.699219 136.585938 15.460938 C 136.5 15.386719 136.40625 15.324219 136.308594 15.269531 C 135.9375 15.0625 135.5 14.988281 135.050781 15.046875 C 134.789062 15.082031 134.527344 15.167969 134.292969 15.292969 C 133.832031 15.539062 133.457031 15.933594 133.148438 16.492188 C 132.890625 16.953125 132.714844 17.449219 132.621094 17.96875 C 132.480469 18.765625 132.609375 19.4375 133.007812 19.957031 C 133.207031 20.214844 133.46875 20.429688 133.765625 20.589844 C 132.984375 21.089844 132.496094 21.945312 132.480469 22.863281 C 132.46875 23.484375 132.679688 24.105469 133.058594 24.617188 Z M 140.261719 17.4375 C 139.90625 17.855469 139.230469 18.082031 138.664062 18.027344 C 138.296875 17.988281 137.941406 17.828125 137.703125 17.558594 C 137.429688 17.25 137.347656 16.828125 137.394531 16.425781 C 137.40625 16.347656 137.417969 16.269531 137.4375 16.191406 C 137.605469 15.523438 138.027344 14.824219 138.613281 14.410156 C 139.105469 14.066406 139.839844 13.808594 140.355469 14.277344 C 141.167969 15.011719 140.882812 16.707031 140.261719 17.4375 Z M 136.355469 19.277344 C 136.351562 19.277344 136.351562 19.277344 136.351562 19.28125 C 135.894531 20.082031 134.421875 20.105469 133.835938 19.34375 C 133.574219 19.003906 133.570312 18.550781 133.640625 18.144531 C 133.714844 17.738281 133.855469 17.339844 134.058594 16.976562 C 134.230469 16.664062 134.460938 16.363281 134.789062 16.1875 C 135.085938 16.03125 135.484375 15.984375 135.800781 16.160156 C 135.988281 16.261719 136.125 16.433594 136.222656 16.621094 C 136.617188 17.394531 136.78125 18.523438 136.355469 19.277344 Z M 141.359375 26.34375 C 140.867188 26.792969 140.085938 26.945312 139.414062 26.742188 C 139.007812 26.621094 138.664062 26.398438 138.34375 26.140625 C 137.960938 25.832031 137.539062 25.574219 137.089844 25.375 C 136.640625 25.179688 136.164062 25.039062 135.675781 24.960938 C 135.269531 24.898438 134.871094 24.796875 134.507812 24.578125 C 133.90625 24.21875 133.503906 23.542969 133.515625 22.882812 C 133.523438 22.269531 133.882812 21.6875 134.429688 21.386719 C 135.289062 20.910156 136.371094 21.050781 137.179688 20.449219 C 137.921875 19.898438 138.6875 19.023438 139.765625 19.5 C 140.847656 19.976562 140.695312 21.121094 140.769531 22.03125 C 140.851562 23.027344 141.675781 23.730469 141.886719 24.675781 C 142.023438 25.28125 141.816406 25.929688 141.359375 26.34375 Z M 141.808594 19.4375 C 141.390625 19.054688 141.121094 18.40625 141.207031 17.867188 C 141.359375 16.925781 142.46875 15.601562 143.566406 15.722656 C 144.265625 15.796875 144.550781 16.511719 144.609375 17.097656 C 144.679688 17.808594 144.421875 18.578125 144.015625 19.140625 C 143.972656 19.207031 143.921875 19.269531 143.867188 19.328125 C 143.589844 19.625 143.214844 19.839844 142.792969 19.84375 C 142.433594 19.84375 142.074219 19.6875 141.808594 19.4375 Z M 145.425781 22.289062 C 145.257812 22.667969 145.027344 23.019531 144.742188 23.328125 C 144.460938 23.632812 144.09375 23.910156 143.660156 23.917969 C 142.683594 23.933594 141.796875 22.78125 142.160156 21.933594 C 142.160156 21.933594 142.160156 21.933594 142.164062 21.933594 C 142.503906 21.136719 143.515625 20.566406 144.378906 20.398438 C 144.585938 20.355469 144.8125 20.359375 145.011719 20.4375 C 145.347656 20.574219 145.554688 20.914062 145.609375 21.238281 C 145.671875 21.597656 145.570312 21.960938 145.425781 22.289062 Z M 145.425781 22.289062 " fill-opacity="1" fill-rule="nonzero"/></g><g fill="#000000" fill-opacity="1"><g transform="translate(5.262094, 23.435851)"><g><path d="M 5.828125 0 L 1.46875 0 L 1.46875 -18.59375 L 14.15625 -18.59375 L 14.15625 -14.703125 L 5.828125 -14.703125 L 5.828125 -11.234375 L 13.359375 -11.234375 L 13.359375 -7.359375 L 5.828125 -7.359375 Z M 5.828125 0 "/></g></g></g><g fill="#000000" fill-opacity="1"><g transform="translate(20.036299, 23.435851)"><g><path d="M 8 0.296875 C 6.53125 0.296875 5.253906 -0.0078125 4.171875 -0.625 C 3.097656 -1.25 2.265625 -2.09375 1.671875 -3.15625 C 1.078125 -4.21875 0.78125 -5.429688 0.78125 -6.796875 C 0.78125 -7.671875 0.910156 -8.539062 1.171875 -9.40625 C 1.441406 -10.269531 1.863281 -11.054688 2.4375 -11.765625 C 3.019531 -12.484375 3.757812 -13.050781 4.65625 -13.46875 C 5.550781 -13.894531 6.625 -14.109375 7.875 -14.109375 C 8.78125 -14.109375 9.660156 -13.972656 10.515625 -13.703125 C 11.367188 -13.441406 12.132812 -13.015625 12.8125 -12.421875 C 13.488281 -11.835938 14.023438 -11.078125 14.421875 -10.140625 C 14.816406 -9.210938 15.015625 -8.082031 15.015625 -6.75 L 15.015625 -6.046875 L 5.0625 -6.046875 C 5.175781 -5.296875 5.414062 -4.703125 5.78125 -4.265625 C 6.070312 -3.910156 6.421875 -3.644531 6.828125 -3.46875 C 7.242188 -3.300781 7.707031 -3.21875 8.21875 -3.21875 C 8.832031 -3.21875 9.351562 -3.367188 9.78125 -3.671875 C 10.21875 -3.984375 10.515625 -4.351562 10.671875 -4.78125 L 14.796875 -4.78125 C 14.535156 -3.863281 14.117188 -3.019531 13.546875 -2.25 C 12.984375 -1.476562 12.238281 -0.859375 11.3125 -0.390625 C 10.394531 0.0664062 9.289062 0.296875 8 0.296875 Z M 5.1875 -8.953125 L 10.875 -8.953125 C 10.84375 -9.109375 10.78125 -9.300781 10.6875 -9.53125 C 10.59375 -9.757812 10.4375 -9.976562 10.21875 -10.1875 C 9.925781 -10.476562 9.59375 -10.6875 9.21875 -10.8125 C 8.84375 -10.9375 8.441406 -11 8.015625 -11 C 7.609375 -11 7.210938 -10.9375 6.828125 -10.8125 C 6.453125 -10.6875 6.117188 -10.476562 5.828125 -10.1875 C 5.597656 -9.957031 5.441406 -9.734375 5.359375 -9.515625 C 5.273438 -9.296875 5.21875 -9.109375 5.1875 -8.953125 Z M 5.1875 -8.953125 "/></g></g></g><g fill="#000000" fill-opacity="1"><g transform="translate(35.834459, 23.435851)"><g><path d="M 8.875 0 L 5.609375 0 C 4.597656 0 3.8125 -0.238281 3.25 -0.71875 C 2.6875 -1.195312 2.40625 -1.875 2.40625 -2.75 L 2.40625 -10.625 L 0.515625 -10.625 L 0.515625 -13.828125 L 2.40625 -13.828125 L 2.40625 -18.59375 L 6.515625 -18.59375 L 6.515625 -13.828125 L 8.890625 -13.828125 L 8.890625 -10.625 L 6.515625 -10.625 L 6.515625 -4.140625 C 6.515625 -3.941406 6.5625 -3.753906 6.65625 -3.578125 C 6.75 -3.398438 6.976562 -3.3125 7.34375 -3.3125 L 8.875 -3.3125 Z M 8.875 0 "/></g></g></g><g fill="#000000" fill-opacity="1"><g transform="translate(45.537653, 23.435851)"><g><path d="M 7.96875 0.296875 C 6.539062 0.296875 5.285156 -0.00390625 4.203125 -0.609375 C 3.117188 -1.210938 2.273438 -2.0625 1.671875 -3.15625 C 1.078125 -4.25 0.78125 -5.53125 0.78125 -7 C 0.78125 -8.40625 1.078125 -9.640625 1.671875 -10.703125 C 2.265625 -11.773438 3.097656 -12.609375 4.171875 -13.203125 C 5.253906 -13.804688 6.519531 -14.109375 7.96875 -14.109375 C 9.707031 -14.109375 11.179688 -13.664062 12.390625 -12.78125 C 13.597656 -11.894531 14.382812 -10.707031 14.75 -9.21875 L 10.265625 -9.21875 C 9.898438 -10.320312 9.132812 -10.875 7.96875 -10.875 C 7.0625 -10.875 6.335938 -10.523438 5.796875 -9.828125 C 5.265625 -9.140625 5 -8.195312 5 -7 C 5 -5.75 5.265625 -4.765625 5.796875 -4.046875 C 6.335938 -3.328125 7.0625 -2.96875 7.96875 -2.96875 C 8.664062 -2.96875 9.195312 -3.125 9.5625 -3.4375 C 9.925781 -3.757812 10.175781 -4.207031 10.3125 -4.78125 L 14.765625 -4.78125 C 14.429688 -3.1875 13.648438 -1.941406 12.421875 -1.046875 C 11.191406 -0.148438 9.707031 0.296875 7.96875 0.296875 Z M 7.96875 0.296875 "/></g></g></g><g fill="#000000" fill-opacity="1"><g transform="translate(60.970116, 23.435851)"><g><path d="M 5.4375 0 L 1.34375 0 L 1.34375 -18.59375 L 5.4375 -18.59375 L 5.4375 -12.328125 C 5.90625 -13.023438 6.425781 -13.492188 7 -13.734375 C 7.582031 -13.984375 8.238281 -14.109375 8.96875 -14.109375 C 9.875 -14.109375 10.625 -14 11.21875 -13.78125 C 11.8125 -13.5625 12.28125 -13.269531 12.625 -12.90625 C 12.976562 -12.539062 13.25 -12.144531 13.4375 -11.71875 C 13.707031 -11.125 13.863281 -10.523438 13.90625 -9.921875 C 13.945312 -9.316406 13.96875 -8.585938 13.96875 -7.734375 L 13.96875 0 L 9.875 0 L 9.875 -7.78125 C 9.875 -8.457031 9.828125 -8.992188 9.734375 -9.390625 C 9.648438 -9.796875 9.5 -10.101562 9.28125 -10.3125 C 8.957031 -10.65625 8.457031 -10.828125 7.78125 -10.828125 C 7.351562 -10.828125 6.984375 -10.769531 6.671875 -10.65625 C 6.367188 -10.550781 6.128906 -10.367188 5.953125 -10.109375 C 5.785156 -9.890625 5.65625 -9.59375 5.5625 -9.21875 C 5.476562 -8.851562 5.4375 -8.375 5.4375 -7.78125 Z M 5.4375 0 "/></g></g></g><g fill="#000000" fill-opacity="1"><g transform="translate(76.183159, 23.435851)"><g><path d="M 5.828125 0 L 1.46875 0 L 1.46875 -18.59375 L 5.828125 -18.59375 L 5.828125 -10.53125 L 11.609375 -18.59375 L 16.84375 -18.59375 L 10.015625 -9.578125 L 16.9375 0 L 11.65625 0 L 5.828125 -8.34375 Z M 5.828125 0 "/></g></g></g><g fill="#000000" fill-opacity="1"><g transform="translate(93.127175, 23.435851)"><g><path d="M 3.390625 -14.765625 C 2.753906 -14.765625 2.207031 -14.953125 1.75 -15.328125 C 1.300781 -15.703125 1.078125 -16.21875 1.078125 -16.875 C 1.078125 -17.519531 1.300781 -18.03125 1.75 -18.40625 C 2.207031 -18.789062 2.753906 -18.984375 3.390625 -18.984375 C 4.023438 -18.984375 4.566406 -18.789062 5.015625 -18.40625 C 5.472656 -18.03125 5.703125 -17.519531 5.703125 -16.875 C 5.703125 -16.21875 5.472656 -15.703125 5.015625 -15.328125 C 4.566406 -14.953125 4.023438 -14.765625 3.390625 -14.765625 Z M 5.4375 0 L 1.34375 0 L 1.34375 -13.828125 L 5.4375 -13.828125 Z M 5.4375 0 "/></g></g></g><g fill="#000000" fill-opacity="1"><g transform="translate(99.904781, 23.435851)"><g><path d="M 8.875 0 L 5.609375 0 C 4.597656 0 3.8125 -0.238281 3.25 -0.71875 C 2.6875 -1.195312 2.40625 -1.875 2.40625 -2.75 L 2.40625 -10.625 L 0.515625 -10.625 L 0.515625 -13.828125 L 2.40625 -13.828125 L 2.40625 -18.59375 L 6.515625 -18.59375 L 6.515625 -13.828125 L 8.890625 -13.828125 L 8.890625 -10.625 L 6.515625 -10.625 L 6.515625 -4.140625 C 6.515625 -3.941406 6.5625 -3.753906 6.65625 -3.578125 C 6.75 -3.398438 6.976562 -3.3125 7.34375 -3.3125 L 8.875 -3.3125 Z M 8.875 0 "/></g></g></g></svg>