<svg xmlns="http://www.w3.org/2000/svg" xmlns:xlink="http://www.w3.org/1999/xlink" width="205" zoomAndPan="magnify" viewBox="0 0 153.75 30.000001" height="40" preserveAspectRatio="xMidYMid meet" version="1.0"><defs><g/><clipPath id="96a7ac53fb"><path d="M 2.359375 25 L 151.148438 25 L 151.148438 29.03125 L 2.359375 29.03125 Z M 2.359375 25 " clip-rule="nonzero"/></clipPath></defs><g fill="#fdfde1" fill-opacity="1"><g transform="translate(2.412778, 21.19328)"><g><path d="M 10.640625 -5.6875 L 10.640625 -14.5625 L 13.640625 -14.5625 L 13.640625 -5.484375 C 13.640625 -4.722656 13.5 -3.992188 13.21875 -3.296875 C 12.9375 -2.609375 12.519531 -2 11.96875 -1.46875 C 11.425781 -0.9375 10.753906 -0.519531 9.953125 -0.21875 C 9.148438 0.0703125 8.21875 0.21875 7.15625 0.21875 C 6.332031 0.21875 5.53125 0.113281 4.75 -0.09375 C 3.976562 -0.300781 3.285156 -0.617188 2.671875 -1.046875 C 2.054688 -1.472656 1.5625 -2.007812 1.1875 -2.65625 C 0.8125 -3.3125 0.609375 -4.082031 0.578125 -4.96875 L 3.421875 -4.96875 C 3.585938 -4.113281 4.007812 -3.460938 4.6875 -3.015625 C 5.375 -2.578125 6.195312 -2.359375 7.15625 -2.359375 C 7.976562 -2.359375 8.644531 -2.503906 9.15625 -2.796875 C 9.664062 -3.085938 10.039062 -3.484375 10.28125 -3.984375 C 10.519531 -4.492188 10.640625 -5.0625 10.640625 -5.6875 Z M 10.640625 -5.6875 "/></g></g></g><g fill="#fdfde1" fill-opacity="1"><g transform="translate(17.772789, 21.19328)"><g><path d="M 10.390625 0.296875 C 8.460938 0.296875 6.8125 -0.00390625 5.4375 -0.609375 C 4.0625 -1.222656 3.007812 -2.09375 2.28125 -3.21875 C 1.550781 -4.34375 1.1875 -5.691406 1.1875 -7.265625 C 1.1875 -8.859375 1.550781 -10.21875 2.28125 -11.34375 C 3.007812 -12.46875 4.0625 -13.332031 5.4375 -13.9375 C 6.8125 -14.539062 8.460938 -14.84375 10.390625 -14.84375 C 12.335938 -14.84375 13.992188 -14.539062 15.359375 -13.9375 C 16.734375 -13.332031 17.78125 -12.46875 18.5 -11.34375 C 19.226562 -10.21875 19.59375 -8.859375 19.59375 -7.265625 C 19.59375 -5.691406 19.226562 -4.34375 18.5 -3.21875 C 17.78125 -2.09375 16.734375 -1.222656 15.359375 -0.609375 C 13.992188 -0.00390625 12.335938 0.296875 10.390625 0.296875 Z M 10.390625 -2.296875 C 11.585938 -2.296875 12.640625 -2.472656 13.546875 -2.828125 C 14.460938 -3.191406 15.175781 -3.738281 15.6875 -4.46875 C 16.207031 -5.207031 16.46875 -6.140625 16.46875 -7.265625 C 16.46875 -8.390625 16.207031 -9.316406 15.6875 -10.046875 C 15.175781 -10.785156 14.460938 -11.335938 13.546875 -11.703125 C 12.640625 -12.078125 11.585938 -12.265625 10.390625 -12.265625 C 9.210938 -12.265625 8.15625 -12.078125 7.21875 -11.703125 C 6.289062 -11.335938 5.5625 -10.785156 5.03125 -10.046875 C 4.507812 -9.316406 4.25 -8.390625 4.25 -7.265625 C 4.25 -6.140625 4.507812 -5.207031 5.03125 -4.46875 C 5.5625 -3.738281 6.289062 -3.191406 7.21875 -2.828125 C 8.15625 -2.472656 9.210938 -2.296875 10.390625 -2.296875 Z M 10.390625 -2.296875 "/></g></g></g><g fill="#fdfde1" fill-opacity="1"><g transform="translate(38.552664, 21.19328)"><g><path d="M 4.71875 -14.5625 L 4.71875 -2.5 L 14.40625 -2.5 L 14.40625 0 L 1.734375 0 L 1.734375 -14.5625 Z M 4.71875 -14.5625 "/></g></g></g><g fill="#fdfde1" fill-opacity="1"><g transform="translate(54.002629, 21.19328)"><g><path d="M 0.453125 -14.5625 L 15.796875 -14.5625 L 15.796875 -12.0625 L 0.453125 -12.0625 Z M 6.640625 -12.375 L 9.625 -12.375 L 9.625 0 L 6.640625 0 Z M 6.640625 -12.375 "/></g></g></g><g fill="#fdfde1" fill-opacity="1"><g transform="translate(70.239714, 21.19328)"><g><path d="M 18.71875 -5.25 C 18.582031 -4.070312 18.171875 -3.070312 17.484375 -2.25 C 16.796875 -1.425781 15.859375 -0.796875 14.671875 -0.359375 C 13.484375 0.078125 12.070312 0.296875 10.4375 0.296875 C 9.070312 0.296875 7.820312 0.140625 6.6875 -0.171875 C 5.5625 -0.492188 4.585938 -0.96875 3.765625 -1.59375 C 2.953125 -2.226562 2.316406 -3.015625 1.859375 -3.953125 C 1.410156 -4.890625 1.1875 -5.988281 1.1875 -7.25 C 1.1875 -8.507812 1.410156 -9.609375 1.859375 -10.546875 C 2.316406 -11.492188 2.953125 -12.285156 3.765625 -12.921875 C 4.585938 -13.554688 5.5625 -14.035156 6.6875 -14.359375 C 7.820312 -14.679688 9.070312 -14.84375 10.4375 -14.84375 C 12.070312 -14.84375 13.484375 -14.617188 14.671875 -14.171875 C 15.867188 -13.722656 16.8125 -13.082031 17.5 -12.25 C 18.195312 -11.414062 18.601562 -10.40625 18.71875 -9.21875 L 15.75 -9.21875 C 15.550781 -9.851562 15.222656 -10.398438 14.765625 -10.859375 C 14.304688 -11.316406 13.71875 -11.664062 13 -11.90625 C 12.28125 -12.144531 11.425781 -12.265625 10.4375 -12.265625 C 9.207031 -12.265625 8.128906 -12.070312 7.203125 -11.6875 C 6.273438 -11.300781 5.554688 -10.738281 5.046875 -10 C 4.535156 -9.257812 4.28125 -8.34375 4.28125 -7.25 C 4.28125 -6.164062 4.535156 -5.253906 5.046875 -4.515625 C 5.554688 -3.785156 6.273438 -3.226562 7.203125 -2.84375 C 8.128906 -2.457031 9.207031 -2.265625 10.4375 -2.265625 C 11.425781 -2.265625 12.273438 -2.382812 12.984375 -2.625 C 13.703125 -2.875 14.289062 -3.222656 14.75 -3.671875 C 15.207031 -4.117188 15.539062 -4.644531 15.75 -5.25 Z M 18.71875 -5.25 "/></g></g></g><g fill="#fdfde1" fill-opacity="1"><g transform="translate(90.142515, 21.19328)"><g><path d="M 4.71875 -14.5625 L 4.71875 -2.5 L 14.40625 -2.5 L 14.40625 0 L 1.734375 0 L 1.734375 -14.5625 Z M 4.71875 -14.5625 "/></g></g></g><g fill="#fdfde1" fill-opacity="1"><g transform="translate(105.59248, 21.19328)"><g><path d="M 2.15625 -14.5625 L 5.15625 -14.5625 L 5.15625 0 L 2.15625 0 Z M 2.15625 -14.5625 "/></g></g></g><g fill="#fdfde1" fill-opacity="1"><g transform="translate(112.878926, 21.19328)"><g><path d="M 18.71875 -5.25 C 18.582031 -4.070312 18.171875 -3.070312 17.484375 -2.25 C 16.796875 -1.425781 15.859375 -0.796875 14.671875 -0.359375 C 13.484375 0.078125 12.070312 0.296875 10.4375 0.296875 C 9.070312 0.296875 7.820312 0.140625 6.6875 -0.171875 C 5.5625 -0.492188 4.585938 -0.96875 3.765625 -1.59375 C 2.953125 -2.226562 2.316406 -3.015625 1.859375 -3.953125 C 1.410156 -4.890625 1.1875 -5.988281 1.1875 -7.25 C 1.1875 -8.507812 1.410156 -9.609375 1.859375 -10.546875 C 2.316406 -11.492188 2.953125 -12.285156 3.765625 -12.921875 C 4.585938 -13.554688 5.5625 -14.035156 6.6875 -14.359375 C 7.820312 -14.679688 9.070312 -14.84375 10.4375 -14.84375 C 12.070312 -14.84375 13.484375 -14.617188 14.671875 -14.171875 C 15.867188 -13.722656 16.8125 -13.082031 17.5 -12.25 C 18.195312 -11.414062 18.601562 -10.40625 18.71875 -9.21875 L 15.75 -9.21875 C 15.550781 -9.851562 15.222656 -10.398438 14.765625 -10.859375 C 14.304688 -11.316406 13.71875 -11.664062 13 -11.90625 C 12.28125 -12.144531 11.425781 -12.265625 10.4375 -12.265625 C 9.207031 -12.265625 8.128906 -12.070312 7.203125 -11.6875 C 6.273438 -11.300781 5.554688 -10.738281 5.046875 -10 C 4.535156 -9.257812 4.28125 -8.34375 4.28125 -7.25 C 4.28125 -6.164062 4.535156 -5.253906 5.046875 -4.515625 C 5.554688 -3.785156 6.273438 -3.226562 7.203125 -2.84375 C 8.128906 -2.457031 9.207031 -2.265625 10.4375 -2.265625 C 11.425781 -2.265625 12.273438 -2.382812 12.984375 -2.625 C 13.703125 -2.875 14.289062 -3.222656 14.75 -3.671875 C 15.207031 -4.117188 15.539062 -4.644531 15.75 -5.25 Z M 18.71875 -5.25 "/></g></g></g><g fill="#fdfde1" fill-opacity="1"><g transform="translate(132.781728, 21.19328)"><g><path d="M 7.96875 -7.09375 L 7.9375 -8.34375 L 17.75 0 L 13.4375 0 L 4.703125 -7.65625 L 12.46875 -14.5625 L 16.71875 -14.5625 Z M 1.734375 -14.5625 L 4.71875 -14.5625 L 4.71875 0 L 1.734375 0 Z M 1.734375 -14.5625 "/></g></g></g><g clip-path="url(#96a7ac53fb)"><path fill="#fdfde1" d="M 107.648438 62.664062 L 109.414062 62.664062 L 109.414062 25.023438 L 107.648438 25.023438 Z M 104.113281 62.664062 L 105.882812 62.664062 L 105.882812 25.023438 L 104.113281 25.023438 Z M 100.578125 62.664062 L 102.347656 62.664062 L 102.347656 25.023438 L 100.578125 25.023438 Z M 112.957031 62.664062 L 115.605469 62.664062 L 115.605469 25.023438 L 112.957031 25.023438 Z M 111.1875 62.664062 L 112.070312 62.664062 L 112.070312 25.023438 L 111.1875 25.023438 Z M 94.390625 62.664062 L 97.046875 62.664062 L 97.046875 25.023438 L 94.390625 25.023438 Z M 84.667969 62.664062 L 87.324219 62.664062 L 87.324219 25.023438 L 84.667969 25.023438 Z M 97.925781 62.664062 L 99.699219 62.664062 L 99.699219 25.023438 L 97.925781 25.023438 Z M 88.210938 62.664062 L 89.089844 62.664062 L 89.089844 25.023438 L 88.210938 25.023438 Z M 89.976562 62.664062 L 93.503906 62.664062 L 93.503906 25.023438 L 89.976562 25.023438 Z M 117.371094 62.664062 L 118.257812 62.664062 L 118.257812 25.023438 L 117.371094 25.023438 Z M 132.394531 62.664062 L 134.160156 62.664062 L 134.160156 25.023438 L 132.394531 25.023438 Z M 146.539062 62.664062 L 148.304688 62.664062 L 148.304688 25.023438 L 146.539062 25.023438 Z M 150.957031 62.664062 L 153.605469 62.664062 L 153.605469 25.023438 L 150.957031 25.023438 Z M 154.492188 62.664062 L 155.375 62.664062 L 155.375 25.023438 L 154.492188 25.023438 Z M 156.261719 25.023438 L 156.261719 62.664062 L 158.027344 62.664062 L 158.027344 25.023438 Z M 142.117188 62.664062 L 145.652344 62.664062 L 145.652344 25.023438 L 142.117188 25.023438 Z M 119.136719 62.664062 L 121.792969 62.664062 L 121.792969 25.023438 L 119.136719 25.023438 Z M 122.679688 62.664062 L 126.207031 62.664062 L 126.207031 25.023438 L 122.679688 25.023438 Z M 139.46875 62.664062 L 140.351562 62.664062 L 140.351562 25.023438 L 139.46875 25.023438 Z M 127.09375 62.664062 L 127.980469 62.664062 L 127.980469 25.023438 L 127.09375 25.023438 Z M 136.816406 62.664062 L 137.695312 62.664062 L 137.695312 25.023438 L 136.816406 25.023438 Z M 80.253906 62.664062 L 82.015625 62.664062 L 82.015625 25.023438 L 80.253906 25.023438 Z M 128.859375 62.664062 L 131.515625 62.664062 L 131.515625 25.023438 L 128.859375 25.023438 Z M 17.5 62.664062 L 19.265625 62.664062 L 19.265625 25.023438 L 17.5 25.023438 Z M 25.453125 62.664062 L 28.109375 62.664062 L 28.109375 25.023438 L 25.453125 25.023438 Z M 22.808594 62.664062 L 24.574219 62.664062 L 24.574219 25.023438 L 22.808594 25.023438 Z M 20.152344 62.664062 L 21.039062 62.664062 L 21.039062 25.023438 L 20.152344 25.023438 Z M 29.875 62.664062 L 30.757812 62.664062 L 30.757812 25.023438 L 29.875 25.023438 Z M 31.644531 62.664062 L 34.296875 62.664062 L 34.296875 25.023438 L 31.644531 25.023438 Z M 10.429688 62.664062 L 11.316406 62.664062 L 11.316406 25.023438 L 10.429688 25.023438 Z M 0.707031 62.664062 L 2.476562 62.664062 L 2.476562 25.023438 L 0.707031 25.023438 Z M 3.355469 62.664062 L 4.242188 62.664062 L 4.242188 25.023438 L 3.355469 25.023438 Z M 35.175781 62.664062 L 38.710938 62.664062 L 38.710938 25.023438 L 35.175781 25.023438 Z M 13.085938 62.664062 L 15.734375 62.664062 L 15.734375 25.023438 L 13.085938 25.023438 Z M 6.011719 62.664062 L 6.898438 62.664062 L 6.898438 25.023438 L 6.011719 25.023438 Z M 39.597656 62.664062 L 40.480469 62.664062 L 40.480469 25.023438 L 39.597656 25.023438 Z M 68.757812 62.664062 L 70.527344 62.664062 L 70.527344 25.023438 L 68.757812 25.023438 Z M 64.34375 62.664062 L 66.109375 62.664062 L 66.109375 25.023438 L 64.34375 25.023438 Z M 62.578125 62.664062 L 63.457031 62.664062 L 63.457031 25.023438 L 62.578125 25.023438 Z M 71.414062 62.664062 L 74.066406 62.664062 L 74.066406 25.023438 L 71.414062 25.023438 Z M 74.949219 62.664062 L 77.601562 62.664062 L 77.601562 25.023438 L 74.949219 25.023438 Z M 78.480469 62.664062 L 79.367188 62.664062 L 79.367188 25.023438 L 78.480469 25.023438 Z M 49.320312 62.664062 L 50.199219 62.664062 L 50.199219 25.023438 L 49.320312 25.023438 Z M 41.363281 62.664062 L 42.246094 62.664062 L 42.246094 25.023438 L 41.363281 25.023438 Z M 44.898438 62.664062 L 46.667969 62.664062 L 46.667969 25.023438 L 44.898438 25.023438 Z M 59.039062 62.664062 L 61.691406 62.664062 L 61.691406 25.023438 L 59.039062 25.023438 Z M 52.855469 62.664062 L 54.621094 62.664062 L 54.621094 25.023438 L 52.855469 25.023438 Z M 55.503906 25.023438 L 58.15625 25.023438 L 58.15625 62.664062 L 55.503906 62.664062 L 55.503906 25.023438 " fill-opacity="1" fill-rule="nonzero"/></g></svg>